<svg width="881" height="1017" viewBox="0 0 881 1017" fill="none" xmlns="http://www.w3.org/2000/svg">
<circle cx="419" cy="495" r="231.5" stroke="url(#paint0_linear_30_39)" stroke-opacity="0.5"/>
<circle cx="419" cy="495" r="289.5" stroke="url(#paint1_linear_30_39)"/>
<g opacity="0.9" filter="url(#filter0_f_30_39)">
<path d="M389.829 370.258C501.845 400.272 619.007 326.248 588.992 438.264C558.978 550.28 443.839 616.755 331.823 586.74C219.807 556.726 153.332 441.587 183.346 329.571C213.361 217.555 277.813 340.243 389.829 370.258Z" fill="#0C91FC"/>
</g>
<g opacity="0.9" filter="url(#filter1_f_30_39)">
<path d="M389.829 370.258C501.845 400.272 619.007 326.248 588.992 438.264C558.978 550.28 443.839 616.755 331.823 586.74C219.807 556.726 153.332 441.587 183.346 329.571C213.361 217.555 277.813 340.243 389.829 370.258Z" fill="#7BC4FF" fill-opacity="0.38"/>
</g>
<g opacity="0.9" filter="url(#filter2_f_30_39)">
<path d="M463.549 396.953C381.548 314.952 243.07 320.478 325.072 238.477C407.073 156.475 540.024 156.476 622.025 238.477C704.027 320.478 704.027 453.429 622.025 535.43C540.024 617.432 545.551 478.954 463.549 396.953Z" fill="#584491"/>
</g>
<g opacity="0.9" filter="url(#filter3_f_30_39)">
<path d="M515.905 401.082C415.474 459.065 384.972 594.255 326.988 493.824C269.004 393.393 303.415 264.973 403.845 206.989C504.276 149.005 632.697 183.415 690.68 283.846C748.664 384.277 616.336 343.098 515.905 401.082Z" fill="#864491"/>
</g>
<g opacity="0.9" filter="url(#filter4_f_30_39)">
<path d="M420.502 615.893C536.482 615.893 630.502 513.859 630.502 630.063C630.502 746.266 536.482 840.468 420.502 840.468C304.522 840.468 210.502 746.266 210.502 630.063C210.502 513.859 304.522 615.893 420.502 615.893Z" fill="#449163"/>
</g>
<defs>
<filter id="filter0_f_30_39" x="0.138672" y="107.285" width="769.619" height="662.662" filterUnits="userSpaceOnUse" color-interpolation-filters="sRGB">
<feFlood flood-opacity="0" result="BackgroundImageFix"/>
<feBlend mode="normal" in="SourceGraphic" in2="BackgroundImageFix" result="shape"/>
<feGaussianBlur stdDeviation="88" result="effect1_foregroundBlur_30_39"/>
</filter>
<filter id="filter1_f_30_39" x="0.138672" y="107.285" width="769.619" height="662.662" filterUnits="userSpaceOnUse" color-interpolation-filters="sRGB">
<feFlood flood-opacity="0" result="BackgroundImageFix"/>
<feBlend mode="normal" in="SourceGraphic" in2="BackgroundImageFix" result="shape"/>
<feGaussianBlur stdDeviation="88" result="effect1_foregroundBlur_30_39"/>
</filter>
<filter id="filter2_f_30_39" x="124.004" y="0.976074" width="735.521" height="735.523" filterUnits="userSpaceOnUse" color-interpolation-filters="sRGB">
<feFlood flood-opacity="0" result="BackgroundImageFix"/>
<feBlend mode="normal" in="SourceGraphic" in2="BackgroundImageFix" result="shape"/>
<feGaussianBlur stdDeviation="88" result="effect1_foregroundBlur_30_39"/>
</filter>
<filter id="filter3_f_30_39" x="122.822" y="2.82227" width="758.021" height="703.056" filterUnits="userSpaceOnUse" color-interpolation-filters="sRGB">
<feFlood flood-opacity="0" result="BackgroundImageFix"/>
<feBlend mode="normal" in="SourceGraphic" in2="BackgroundImageFix" result="shape"/>
<feGaussianBlur stdDeviation="88" result="effect1_foregroundBlur_30_39"/>
</filter>
<filter id="filter4_f_30_39" x="34.502" y="398.468" width="772" height="618" filterUnits="userSpaceOnUse" color-interpolation-filters="sRGB">
<feFlood flood-opacity="0" result="BackgroundImageFix"/>
<feBlend mode="normal" in="SourceGraphic" in2="BackgroundImageFix" result="shape"/>
<feGaussianBlur stdDeviation="88" result="effect1_foregroundBlur_30_39"/>
</filter>
<linearGradient id="paint0_linear_30_39" x1="419" y1="263" x2="419" y2="727" gradientUnits="userSpaceOnUse">
<stop stop-color="white"/>
<stop offset="1" stop-color="white" stop-opacity="0"/>
</linearGradient>
<linearGradient id="paint1_linear_30_39" x1="419" y1="205" x2="419" y2="785" gradientUnits="userSpaceOnUse">
<stop stop-color="white"/>
<stop offset="1" stop-color="white" stop-opacity="0"/>
</linearGradient>
</defs>
</svg>
