<svg width="190" height="62" viewBox="0 0 190 62" fill="none" xmlns="http://www.w3.org/2000/svg">
<path d="M4.68732 22.3121C4.90483 22.3121 5.06891 22.4449 5.14523 22.7143L10.4074 39.452C10.4093 39.4836 10.4176 39.5145 10.4318 39.5428C10.446 39.5712 10.4658 39.5964 10.49 39.6169C10.5142 39.6375 10.5424 39.6529 10.5728 39.6624C10.6032 39.6719 10.6352 39.6752 10.6669 39.672H10.8309C10.891 39.6692 10.9482 39.6456 10.9927 39.6055C11.0372 39.5654 11.0664 39.5111 11.0752 39.452L16.3411 24.1103C16.4851 23.542 16.8171 23.0383 17.2836 22.6801C17.724 22.4165 18.2314 22.2848 18.7451 22.3008H21.962C22.5375 22.2637 23.1105 22.4041 23.6028 22.7029C24.0449 23.0676 24.3677 23.5549 24.5301 24.1028L29.9372 39.452C29.9472 39.5133 29.9787 39.5691 30.0263 39.6094C30.0738 39.6497 30.1342 39.6719 30.1967 39.672H30.3913C30.4544 39.6728 30.5158 39.6511 30.5641 39.6107C30.6124 39.5703 30.6445 39.514 30.6546 39.452L35.787 22.7143C35.7978 22.6481 35.8224 22.5849 35.8592 22.5287C35.896 22.4726 35.9442 22.4246 36.0007 22.388C36.0948 22.3385 36.1995 22.3124 36.306 22.3121H40.6943C40.7637 22.303 40.8341 22.3201 40.8913 22.3602C40.9486 22.4003 40.9886 22.4603 41.0033 22.5284C41.0325 22.6954 41.0154 22.8673 40.9537 23.0254L34.7338 41.7282C34.4323 42.6615 34.0965 43.2912 33.7264 43.6251C33.306 43.9665 32.7726 44.1397 32.2306 44.1106H28.4147C27.8755 44.1422 27.3453 43.9624 26.9379 43.6099C26.4556 43.0683 26.1033 42.4249 25.9076 41.7282L20.8057 26.9328C20.8039 26.9014 20.7956 26.8706 20.7813 26.8425C20.7671 26.8143 20.7472 26.7893 20.7229 26.7691C20.6986 26.7488 20.6704 26.7337 20.64 26.7247C20.6096 26.7157 20.5777 26.7129 20.5462 26.7166H20.4165C20.385 26.7129 20.3531 26.7157 20.3227 26.7247C20.2924 26.7337 20.2642 26.7488 20.2399 26.7691C20.2156 26.7893 20.1957 26.8143 20.1814 26.8425C20.1672 26.8706 20.1589 26.9014 20.157 26.9328L14.9903 41.7282C14.793 42.4182 14.4437 43.0558 13.9676 43.5947C13.5584 43.9468 13.0273 44.1264 12.487 44.0955H8.78561C8.46382 44.0988 8.14262 44.067 7.82782 44.0006C7.56059 43.9389 7.31122 43.8169 7.09898 43.644C6.8609 43.4404 6.66628 43.1915 6.52659 42.9118C6.33689 42.5307 6.17865 42.1348 6.05342 41.7282L0.073885 23.0254C0.0079658 22.8631 -0.0143891 22.6866 0.00901453 22.5132C0.0269399 22.4479 0.0682748 22.3915 0.125218 22.3544C0.18216 22.3174 0.250772 22.3023 0.318103 22.3121H4.68732Z" fill="white"/>
<path d="M54.7028 22.3124C55.4254 22.288 56.1416 22.4542 56.7787 22.7942C57.4865 23.2745 58.0581 23.9277 58.4386 24.691L69.1956 43.3939C69.2448 43.4687 69.2773 43.5531 69.2912 43.6414C69.305 43.7297 69.2997 43.8199 69.2758 43.9061C69.2224 44.0426 69.0659 44.1109 68.8026 44.1109H64.6776C64.524 44.128 64.3688 44.0984 64.2325 44.0259C64.0963 43.9534 63.9853 43.8415 63.9144 43.705L61.6249 39.6913H46.3612L44.1175 43.705C44.0434 43.8388 43.9319 43.9484 43.7964 44.0205C43.661 44.0925 43.5074 44.1239 43.3543 44.1109H39.1339C38.8515 44.1109 38.6836 44.0426 38.6302 43.9061C38.606 43.8197 38.601 43.7292 38.6155 43.6408C38.63 43.5524 38.6637 43.4681 38.7141 43.3939L49.372 24.691C49.7451 23.9432 50.2902 23.2934 50.9632 22.7942C51.5114 22.4645 52.1429 22.2973 52.7834 22.3124H54.7028ZM48.3951 36.0645H59.5757L54.409 26.9331C54.3751 26.8676 54.3237 26.8128 54.2604 26.7746C54.1971 26.7364 54.1243 26.7164 54.0503 26.7169H53.8557C53.7816 26.7164 53.7089 26.7364 53.6456 26.7746C53.5823 26.8128 53.5308 26.8676 53.497 26.9331L48.3951 36.0645Z" fill="white"/>
<path d="M68.7365 22.3121C68.8995 22.3006 69.0627 22.332 69.2097 22.4031C69.3244 22.4842 69.4184 22.5907 69.4844 22.7142L78.9975 39.4519C79.0304 39.5234 79.0847 39.5829 79.1531 39.6223C79.2214 39.6617 79.3004 39.6791 79.3791 39.672H79.5394C79.6143 39.6744 79.6882 39.6548 79.752 39.6156C79.8158 39.5765 79.8666 39.5196 79.8981 39.4519L89.3005 22.7142C89.3719 22.5784 89.4831 22.4673 89.6193 22.3955C89.7556 22.3237 89.9105 22.2946 90.0636 22.3121H94.3222C94.5817 22.3121 94.7381 22.3804 94.7916 22.5131C94.8158 22.5992 94.8211 22.6895 94.8073 22.7778C94.7935 22.8662 94.7608 22.9506 94.7114 23.0253L84.0459 41.7281C83.6788 42.4809 83.1311 43.1324 82.4509 43.625C81.8996 43.946 81.2695 44.1088 80.6307 44.0954H78.7456C78.0181 44.1219 77.2962 43.9597 76.6507 43.625C76.0974 43.3139 75.5517 42.6841 75.0099 41.7281L64.2223 23.0253C64.1716 22.9512 64.1378 22.8669 64.1233 22.7784C64.1088 22.69 64.1139 22.5994 64.1383 22.5131C64.1956 22.3804 64.3635 22.3121 64.6459 22.3121H68.7365Z" fill="white"/>
<path d="M119.303 22.3123C119.803 22.3123 120.066 22.5399 120.066 22.9952V25.9505C120.066 26.4095 119.818 26.6371 119.303 26.6371H105.104C104.4 26.6232 103.697 26.6906 103.009 26.8382C102.51 26.9452 102.049 27.1822 101.673 27.5248C101.316 27.8822 101.074 28.3361 100.975 28.8299C100.833 29.4995 100.768 30.1829 100.78 30.8671V31.1782H119.142C119.238 31.1634 119.335 31.1707 119.427 31.1996C119.518 31.2285 119.602 31.2782 119.671 31.3448C119.74 31.4113 119.793 31.4929 119.825 31.5832C119.857 31.6734 119.868 31.7698 119.856 31.8648V34.3231C119.856 34.7784 119.619 35.006 119.142 35.006H100.78V35.5371C100.768 36.2213 100.833 36.9047 100.975 37.5743C101.075 38.0689 101.317 38.5237 101.673 38.8831C102.05 39.2246 102.511 39.4603 103.009 39.566C103.697 39.7154 104.4 39.7829 105.104 39.7671H119.303C119.803 39.7671 120.066 39.9985 120.066 40.4537V43.409C120.066 43.8642 119.818 44.0957 119.303 44.0957H105.004C103.593 44.1207 102.183 43.9742 100.807 43.6594C99.7672 43.4237 98.8015 42.9378 97.9947 42.2443C97.2449 41.5495 96.6955 40.668 96.4034 39.6912C96.0432 38.4593 95.8733 37.1801 95.8997 35.8975V30.5256C95.8704 29.2429 96.0403 27.9632 96.4034 26.732C96.6968 25.7601 97.2461 24.8838 97.9947 24.194C98.804 23.4961 99.7717 23.004 100.815 22.76C102.189 22.4319 103.599 22.2802 105.012 22.3085L119.303 22.3123Z" fill="white"/>
<path d="M135.741 31.709C135.819 31.6966 135.898 31.7024 135.974 31.7259C136.049 31.7494 136.118 31.7901 136.174 31.8445C136.231 31.899 136.274 31.9659 136.3 32.0398C136.326 32.1137 136.335 32.1927 136.325 32.2705V34.5201C136.335 34.5979 136.326 34.6768 136.3 34.7508C136.274 34.8247 136.231 34.8915 136.174 34.946C136.118 35.0005 136.049 35.0411 135.974 35.0647C135.898 35.0882 135.819 35.094 135.741 35.0816H125.957C125.879 35.094 125.799 35.0882 125.724 35.0647C125.649 35.0411 125.58 35.0005 125.524 34.946C125.467 34.8915 125.424 34.8247 125.398 34.7508C125.372 34.6768 125.363 34.5979 125.373 34.5201V32.2818C125.363 32.2041 125.372 32.1251 125.398 32.0512C125.424 31.9773 125.467 31.9104 125.524 31.8559C125.58 31.8014 125.649 31.7608 125.724 31.7373C125.799 31.7138 125.879 31.708 125.957 31.7204L135.741 31.709Z" fill="white"/>
<path d="M135.047 11.9364C135.109 11.879 135.187 11.8413 135.27 11.828C135.354 11.8148 135.44 11.8266 135.517 11.862C135.594 11.8974 135.659 11.9548 135.703 12.0269C135.747 12.0989 135.768 12.1823 135.765 12.2666C135.761 12.3508 135.732 12.432 135.681 12.4999C135.631 12.5677 135.562 12.6192 135.482 12.6476C135.402 12.6761 135.315 12.6803 135.233 12.6597C135.151 12.6391 135.077 12.5946 135.02 12.532C134.945 12.4491 134.906 12.3402 134.911 12.2287C134.916 12.1173 134.964 12.0123 135.047 11.9364V11.9364Z" fill="#69BDF9"/>
<path d="M140.404 8.12361C140.543 7.99712 140.717 7.91444 140.903 7.88599C141.09 7.85754 141.28 7.88461 141.451 7.96378C141.622 8.04295 141.765 8.17066 141.863 8.3308C141.961 8.49095 142.009 8.67634 142.001 8.86357C141.993 9.05081 141.93 9.2315 141.818 9.38283C141.707 9.53417 141.553 9.64936 141.377 9.71388C141.2 9.77839 141.007 9.78933 140.824 9.74532C140.641 9.7013 140.475 9.60431 140.347 9.46657C140.176 9.28073 140.086 9.03505 140.097 8.78334C140.107 8.53162 140.218 8.2944 140.404 8.12361V8.12361Z" fill="#69BDF9"/>
<path d="M146.54 5.68823C146.735 5.51031 146.978 5.39373 147.239 5.35325C147.5 5.31278 147.767 5.35023 148.007 5.46086C148.247 5.5715 148.448 5.75034 148.585 5.97476C148.723 6.19918 148.79 6.45909 148.779 6.72159C148.768 6.98408 148.678 7.23737 148.522 7.44938C148.366 7.6614 148.15 7.82261 147.902 7.91263C147.654 8.00264 147.384 8.0174 147.128 7.95504C146.871 7.89268 146.639 7.75601 146.46 7.56231C146.341 7.43417 146.249 7.28398 146.189 7.12034C146.128 6.95671 146.101 6.78284 146.109 6.60873C146.116 6.43462 146.158 6.26368 146.232 6.10572C146.306 5.94776 146.411 5.80589 146.54 5.68823V5.68823Z" fill="#69BDF9"/>
<path d="M153.057 4.81182C153.294 4.5935 153.591 4.4501 153.91 4.39984C154.229 4.34959 154.555 4.39474 154.849 4.52957C155.142 4.6644 155.388 4.88282 155.556 5.15708C155.724 5.43135 155.806 5.74908 155.792 6.06992C155.778 6.39076 155.669 6.70022 155.478 6.95901C155.286 7.21779 155.022 7.41421 154.718 7.52332C154.414 7.63244 154.085 7.64931 153.771 7.5718C153.458 7.4943 153.175 7.32591 152.958 7.08803C152.669 6.77206 152.518 6.35582 152.537 5.92966C152.555 5.5035 152.742 5.10182 153.057 4.81182V4.81182Z" fill="#69BDF9"/>
<path d="M159.614 5.49458C159.881 5.25133 160.215 5.09233 160.573 5.03768C160.931 4.98304 161.298 5.0352 161.626 5.18757C161.954 5.33995 162.23 5.58569 162.418 5.89372C162.605 6.20175 162.697 6.55823 162.681 6.91807C162.665 7.2779 162.542 7.62494 162.328 7.91527C162.113 8.20561 161.817 8.4262 161.476 8.54916C161.136 8.67211 160.766 8.6919 160.414 8.60602C160.063 8.52015 159.744 8.33246 159.5 8.0667C159.172 7.71047 159 7.23941 159.021 6.75708C159.043 6.27474 159.256 5.82063 159.614 5.49458V5.49458Z" fill="#69BDF9"/>
<path d="M165.818 7.70997C166.105 7.4492 166.463 7.2788 166.847 7.22029C167.231 7.16178 167.624 7.2178 167.976 7.38127C168.328 7.54473 168.624 7.8083 168.825 8.13866C169.027 8.46902 169.125 8.85134 169.108 9.2373C169.091 9.62325 168.959 9.99551 168.73 10.307C168.5 10.6185 168.182 10.8553 167.817 10.9874C167.452 11.1196 167.055 11.1411 166.678 11.0493C166.301 10.9575 165.959 10.7565 165.696 10.4718C165.522 10.2825 165.387 10.0609 165.298 9.81966C165.21 9.5784 165.17 9.3222 165.182 9.06571C165.193 8.80921 165.255 8.55745 165.364 8.32483C165.474 8.0922 165.628 7.88326 165.818 7.70997V7.70997Z" fill="#69BDF9"/>
<path d="M171.302 11.3483C171.598 11.0796 171.967 10.9041 172.363 10.8439C172.759 10.7838 173.164 10.8416 173.527 11.0102C173.89 11.1788 174.194 11.4506 174.402 11.7911C174.609 12.1317 174.711 12.5258 174.693 12.9237C174.676 13.3215 174.54 13.7053 174.303 14.0264C174.066 14.3476 173.739 14.5917 173.362 14.728C172.986 14.8643 172.577 14.8867 172.188 14.7922C171.799 14.6977 171.447 14.4907 171.176 14.1973C170.996 14.0021 170.856 13.7736 170.765 13.5247C170.674 13.2758 170.633 13.0115 170.645 12.7468C170.656 12.4822 170.72 12.2224 170.833 11.9824C170.946 11.7425 171.105 11.527 171.302 11.3483V11.3483Z" fill="#69BDF9"/>
<path d="M175.743 16.1745C176.039 15.9031 176.41 15.7254 176.809 15.6638C177.207 15.6021 177.615 15.6593 177.98 15.8281C178.346 15.9969 178.653 16.2698 178.863 16.6121C179.072 16.9545 179.175 17.3509 179.158 17.7514C179.141 18.1518 179.005 18.5382 178.767 18.8617C178.529 19.1851 178.199 19.4311 177.821 19.5685C177.442 19.7059 177.031 19.7286 176.639 19.6336C176.247 19.5386 175.893 19.3303 175.62 19.0349C175.256 18.6389 175.065 18.1157 175.088 17.5796C175.111 17.0436 175.346 16.5384 175.743 16.1745V16.1745Z" fill="#69BDF9"/>
<path d="M178.892 21.9028C179.183 21.6386 179.547 21.4661 179.937 21.4072C180.327 21.3484 180.726 21.4057 181.083 21.5721C181.44 21.7384 181.74 22.0062 181.944 22.3418C182.148 22.6773 182.248 23.0655 182.23 23.4573C182.212 23.849 182.079 24.2268 181.845 24.543C181.612 24.8591 181.289 25.0994 180.919 25.2334C180.548 25.3675 180.146 25.3893 179.762 25.2962C179.379 25.203 179.032 24.9991 178.766 24.7101C178.408 24.3211 178.221 23.8069 178.244 23.2805C178.268 22.7541 178.501 22.2586 178.892 21.9028V21.9028Z" fill="#69BDF9"/>
<path d="M180.552 28.2193C180.827 27.9702 181.171 27.8077 181.539 27.7525C181.907 27.6972 182.284 27.7516 182.621 27.9087C182.958 28.0659 183.241 28.3188 183.433 28.6355C183.626 28.9522 183.72 29.3186 183.704 29.6884C183.687 30.0583 183.561 30.4149 183.341 30.7135C183.121 31.0121 182.817 31.2391 182.467 31.366C182.117 31.4929 181.737 31.514 181.375 31.4266C181.014 31.3392 180.686 31.1472 180.434 30.8749C180.265 30.6931 180.135 30.4801 180.05 30.248C179.965 30.0159 179.926 29.7694 179.937 29.5226C179.948 29.2758 180.008 29.0336 180.114 28.8099C180.219 28.5863 180.368 28.3855 180.552 28.2193V28.2193Z" fill="#69BDF9"/>
<path d="M180.64 34.7518C180.888 34.5251 181.199 34.3769 181.533 34.3259C181.866 34.2749 182.208 34.3234 182.513 34.4652C182.819 34.6071 183.076 34.836 183.251 35.1229C183.426 35.4099 183.511 35.7419 183.496 36.0771C183.481 36.4123 183.366 36.7355 183.167 37.0059C182.967 37.2763 182.691 37.4817 182.374 37.5961C182.056 37.7105 181.712 37.7287 181.384 37.6486C181.057 37.5684 180.76 37.3933 180.533 37.1456C180.229 36.8135 180.07 36.3753 180.09 35.9268C180.11 35.4783 180.307 35.0559 180.64 34.7518V34.7518Z" fill="#69BDF9"/>
<path d="M179.154 41.1171C179.364 40.9256 179.626 40.8001 179.907 40.7567C180.188 40.7133 180.476 40.7538 180.734 40.8731C180.992 40.9925 181.209 41.1853 181.357 41.4271C181.505 41.669 181.577 41.949 181.565 42.2317C181.553 42.5145 181.456 42.7873 181.288 43.0155C181.12 43.2438 180.887 43.4173 180.619 43.514C180.352 43.6108 180.062 43.6264 179.785 43.559C179.509 43.4916 179.258 43.3442 179.066 43.1354C178.938 42.9972 178.839 42.8354 178.775 42.6591C178.71 42.4829 178.681 42.2956 178.689 42.1081C178.697 41.9206 178.742 41.7366 178.822 41.5665C178.902 41.3965 179.015 41.2438 179.154 41.1171V41.1171Z" fill="#69BDF9"/>
<path d="M176.174 46.9526C176.332 46.8095 176.529 46.716 176.74 46.6841C176.951 46.6522 177.167 46.6832 177.36 46.7732C177.553 46.8632 177.716 47.0082 177.826 47.1899C177.937 47.3715 177.991 47.5817 177.981 47.7938C177.971 48.0058 177.899 48.2103 177.772 48.3814C177.646 48.5524 177.471 48.6824 177.27 48.7548C177.07 48.8272 176.852 48.8387 176.644 48.7881C176.437 48.7374 176.249 48.6268 176.105 48.4701C176.01 48.366 175.935 48.2442 175.887 48.1116C175.839 47.979 175.817 47.8382 175.823 47.6972C175.83 47.5563 175.864 47.418 175.924 47.2902C175.984 47.1625 176.069 47.0478 176.174 46.9526V46.9526Z" fill="#69BDF9"/>
<path d="M171.863 51.9028C171.919 51.8515 171.984 51.8117 172.056 51.7856C172.127 51.7596 172.203 51.7478 172.279 51.751C172.355 51.7542 172.429 51.7722 172.498 51.8041C172.567 51.836 172.629 51.8812 172.68 51.9369C172.731 51.9925 172.771 52.0575 172.797 52.1284C172.823 52.1993 172.835 52.2745 172.832 52.3499C172.829 52.4253 172.811 52.4993 172.779 52.5678C172.747 52.6362 172.701 52.6977 172.646 52.7488C172.59 52.7998 172.524 52.8395 172.453 52.8654C172.382 52.8913 172.306 52.903 172.23 52.8998C172.154 52.8967 172.08 52.8787 172.011 52.8469C171.942 52.8151 171.88 52.7702 171.829 52.7146C171.777 52.6592 171.737 52.5942 171.711 52.5233C171.685 52.4524 171.673 52.3771 171.676 52.3016C171.679 52.2261 171.698 52.1521 171.73 52.0836C171.762 52.0152 171.807 51.9537 171.863 51.9028Z" fill="#69BDF9"/>
<path d="M147.684 1.38619C147.773 1.35808 147.869 1.35697 147.959 1.38299C148.049 1.40902 148.129 1.46101 148.189 1.53238C148.249 1.60375 148.287 1.69128 148.297 1.78389C148.307 1.87649 148.289 1.96999 148.246 2.05255C148.203 2.1351 148.136 2.20299 148.053 2.24761C147.971 2.29223 147.877 2.31157 147.784 2.30318C147.691 2.29479 147.602 2.25905 147.529 2.20048C147.456 2.14192 147.403 2.06316 147.375 1.97421C147.338 1.85548 147.349 1.72698 147.407 1.6168C147.465 1.50662 147.565 1.42371 147.684 1.38619V1.38619Z" fill="#69BDF9"/>
<path d="M154.87 0.0471419C155.07 -0.0144625 155.285 -0.0157159 155.486 0.0435397C155.686 0.102795 155.865 0.219904 155.999 0.380085C156.133 0.540267 156.217 0.736341 156.239 0.943561C156.261 1.15078 156.221 1.35986 156.123 1.54441C156.026 1.72895 155.876 1.8807 155.692 1.98049C155.508 2.08028 155.298 2.12364 155.09 2.10511C154.881 2.08657 154.682 2.00696 154.519 1.87634C154.356 1.74571 154.235 1.56991 154.172 1.37114C154.13 1.23863 154.115 1.09919 154.127 0.960826C154.14 0.822464 154.179 0.687907 154.244 0.564882C154.309 0.441857 154.398 0.332787 154.505 0.243938C154.613 0.155088 154.737 0.0882093 154.87 0.0471419V0.0471419Z" fill="#69BDF9"/>
<path d="M162.185 0.468223C162.465 0.38121 162.764 0.378457 163.045 0.460313C163.325 0.542169 163.576 0.704961 163.763 0.928118C163.951 1.15128 164.068 1.42479 164.1 1.71409C164.132 2.00339 164.076 2.2955 163.941 2.55352C163.805 2.81153 163.596 3.02387 163.339 3.1637C163.083 3.30353 162.79 3.36458 162.499 3.33914C162.207 3.31369 161.93 3.2029 161.701 3.02074C161.473 2.83859 161.304 2.59326 161.216 2.31575C161.157 2.13119 161.135 1.93683 161.152 1.74386C161.169 1.5509 161.224 1.36314 161.314 1.19141C161.404 1.01967 161.527 0.867361 161.677 0.743244C161.826 0.619127 161.999 0.525658 162.185 0.468223V0.468223Z" fill="#69BDF9"/>
<path d="M169.177 2.61871C169.518 2.51221 169.884 2.50865 170.227 2.60847C170.57 2.70829 170.876 2.90702 171.105 3.17955C171.335 3.45207 171.478 3.78615 171.517 4.13958C171.556 4.49301 171.488 4.84992 171.323 5.16521C171.158 5.4805 170.902 5.74003 170.589 5.91099C170.275 6.08195 169.918 6.15667 169.561 6.12571C169.205 6.09476 168.866 5.95951 168.587 5.73707C168.308 5.51462 168.102 5.21496 167.994 4.87595C167.923 4.65052 167.896 4.41327 167.917 4.17776C167.938 3.94226 168.005 3.71312 168.115 3.50347C168.225 3.29381 168.375 3.10775 168.557 2.95594C168.74 2.80412 168.95 2.68952 169.177 2.61871V2.61871Z" fill="#69BDF9"/>
<path d="M175.458 6.36744C175.841 6.24725 176.252 6.24282 176.638 6.35472C177.024 6.46661 177.368 6.6898 177.627 6.99608C177.886 7.30236 178.047 7.67797 178.091 8.07543C178.135 8.47289 178.059 8.87436 177.873 9.22908C177.688 9.58381 177.401 9.87586 177.048 10.0683C176.696 10.2608 176.294 10.345 175.893 10.3104C175.492 10.2757 175.111 10.1238 174.797 9.8737C174.483 9.62362 174.251 9.28666 174.13 8.90541C174.049 8.65208 174.02 8.38546 174.043 8.12077C174.066 7.85609 174.141 7.59854 174.265 7.36283C174.388 7.12713 174.557 6.91791 174.762 6.74711C174.966 6.57631 175.203 6.4473 175.458 6.36744V6.36744Z" fill="#69BDF9"/>
<path d="M180.658 11.4966C181.07 11.3687 181.511 11.3651 181.924 11.4861C182.338 11.6071 182.707 11.8473 182.984 12.1765C183.26 12.5056 183.433 12.9089 183.479 13.3353C183.525 13.7618 183.443 14.1923 183.243 14.5725C183.044 14.9527 182.735 15.2655 182.357 15.4715C181.978 15.6774 181.547 15.7672 181.117 15.7295C180.687 15.6919 180.278 15.5284 179.942 15.2598C179.606 14.9912 179.357 14.6296 179.227 14.2205C179.14 13.9483 179.108 13.6616 179.133 13.3771C179.158 13.0926 179.24 12.8158 179.373 12.5626C179.506 12.3095 179.688 12.0849 179.908 11.902C180.129 11.7191 180.384 11.5813 180.658 11.4966V11.4966Z" fill="#69BDF9"/>
<path d="M184.459 17.7216C184.884 17.5883 185.339 17.5831 185.766 17.7068C186.194 17.8305 186.575 18.0775 186.861 18.4166C187.148 18.7556 187.326 19.1715 187.375 19.6116C187.424 20.0517 187.34 20.4962 187.134 20.889C186.929 21.2818 186.611 21.6051 186.22 21.8181C185.83 22.0311 185.385 22.1243 184.941 22.0857C184.497 22.0472 184.075 21.8787 183.728 21.6016C183.381 21.3245 183.124 20.9512 182.99 20.5289C182.901 20.2487 182.868 19.9537 182.893 19.6608C182.919 19.368 183.002 19.083 183.138 18.8222C183.275 18.5614 183.462 18.3299 183.688 18.1411C183.915 17.9522 184.177 17.8097 184.459 17.7216V17.7216Z" fill="#69BDF9"/>
<path d="M186.657 24.6565C187.084 24.5233 187.541 24.5189 187.971 24.6438C188.4 24.7688 188.783 25.0175 189.07 25.3586C189.357 25.6996 189.536 26.1177 189.585 26.5599C189.633 27.0022 189.548 27.4487 189.341 27.8431C189.135 28.2375 188.815 28.5621 188.422 28.7759C188.03 28.9896 187.583 29.0829 187.137 29.0439C186.691 29.0049 186.267 28.8354 185.918 28.5569C185.569 28.2784 185.311 27.9032 185.177 27.479C185.088 27.197 185.055 26.9003 185.081 26.6058C185.107 26.3113 185.191 26.0248 185.329 25.7626C185.466 25.5005 185.654 25.2679 185.882 25.0781C186.11 24.8883 186.374 24.745 186.657 24.6565V24.6565Z" fill="#69BDF9"/>
<path d="M187.118 31.8913C187.536 31.7607 187.984 31.7563 188.405 31.8787C188.826 32.001 189.2 32.2447 189.482 32.5788C189.763 32.9129 189.939 33.3224 189.986 33.7557C190.034 34.189 189.951 34.6265 189.748 35.013C189.546 35.3995 189.232 35.7175 188.848 35.927C188.464 36.1365 188.025 36.228 187.589 36.1899C187.152 36.1517 186.736 35.9858 186.395 35.7129C186.053 35.4401 185.8 35.0726 185.668 34.6569C185.58 34.3807 185.548 34.0899 185.573 33.8012C185.598 33.5125 185.68 33.2316 185.815 32.9746C185.95 32.7176 186.134 32.4897 186.358 32.3038C186.581 32.1179 186.84 31.9777 187.118 31.8913V31.8913Z" fill="#69BDF9"/>
<path d="M185.806 39.0235C186.201 38.9001 186.624 38.8959 187.022 39.0114C187.419 39.127 187.774 39.3572 188.04 39.6728C188.306 39.9885 188.472 40.3755 188.516 40.7848C188.561 41.1942 188.483 41.6077 188.292 41.9729C188.1 42.3381 187.804 42.6387 187.441 42.8367C187.078 43.0347 186.664 43.1212 186.251 43.0853C185.838 43.0494 185.446 42.8926 185.123 42.6349C184.8 42.3772 184.561 42.03 184.436 41.6373C184.27 41.1101 184.321 40.5388 184.577 40.0488C184.834 39.5588 185.276 39.19 185.806 39.0235V39.0235Z" fill="#69BDF9"/>
<path d="M182.811 45.6433C183.171 45.5275 183.558 45.5208 183.922 45.6241C184.286 45.7274 184.611 45.936 184.855 46.2233C185.099 46.5106 185.252 46.8637 185.294 47.2376C185.336 47.6116 185.266 47.9895 185.091 48.3233C184.916 48.6571 184.646 48.9318 184.314 49.1123C183.982 49.2929 183.603 49.3712 183.226 49.3372C182.849 49.3033 182.491 49.1587 182.197 48.9217C181.903 48.6848 181.686 48.3663 181.575 48.0067C181.427 47.5303 181.474 47.0152 181.705 46.5729C181.937 46.1306 182.334 45.7966 182.811 45.6433V45.6433Z" fill="#69BDF9"/>
<path d="M178.308 51.3645C178.608 51.2701 178.931 51.2666 179.234 51.3544C179.537 51.4421 179.807 51.6173 180.009 51.8576C180.212 52.0979 180.339 52.3926 180.373 52.7045C180.407 53.0163 180.348 53.3313 180.202 53.6095C180.056 53.8877 179.831 54.1166 179.554 54.2674C179.277 54.4182 178.962 54.4839 178.648 54.4564C178.333 54.4289 178.034 54.3093 177.788 54.1128C177.542 53.9163 177.36 53.6516 177.266 53.3524C177.14 52.9514 177.179 52.5173 177.374 52.1448C177.569 51.7723 177.905 51.4918 178.308 51.3645V51.3645Z" fill="#69BDF9"/>
<path d="M172.549 55.8442C172.776 55.7726 173.019 55.7694 173.247 55.8352C173.476 55.9009 173.679 56.0325 173.832 56.2134C173.986 56.3942 174.081 56.6162 174.108 56.8512C174.134 57.0862 174.089 57.3237 173.98 57.5336C173.87 57.7434 173.701 57.9163 173.492 58.0302C173.284 58.1442 173.046 58.1941 172.809 58.1736C172.572 58.1532 172.347 58.0633 172.161 57.9154C171.976 57.7675 171.838 57.5682 171.767 57.3427C171.673 57.0408 171.703 56.7144 171.849 56.434C171.995 56.1536 172.247 55.9418 172.549 55.8442V55.8442Z" fill="#69BDF9"/>
<path d="M165.871 58.8186C165.992 58.781 166.122 58.7799 166.243 58.8153C166.365 58.8508 166.473 58.9213 166.555 59.0179C166.636 59.1145 166.687 59.2329 166.7 59.3581C166.714 59.4834 166.69 59.6098 166.631 59.7215C166.573 59.8332 166.482 59.9252 166.371 59.9857C166.26 60.0463 166.133 60.0728 166.007 60.0618C165.881 60.0508 165.761 60.0029 165.662 59.9242C165.563 59.8454 165.49 59.7392 165.452 59.6191C165.426 59.5392 165.417 59.455 165.424 59.3714C165.432 59.2879 165.455 59.2066 165.494 59.1323C165.533 59.0579 165.587 58.9919 165.652 58.9381C165.716 58.8843 165.791 58.8437 165.871 58.8186V58.8186Z" fill="#69BDF9"/>
<path d="M164.315 22.3125C164.792 22.3125 165.028 22.5401 165.028 22.9954V25.9506C165.028 26.4097 164.792 26.6373 164.315 26.6373H148.032C147.789 26.6122 147.544 26.641 147.313 26.7217C147.083 26.8024 146.874 26.9329 146.7 27.1039C146.426 27.4708 146.291 27.9223 146.319 28.3786V29.437C146.319 30.5979 146.882 31.1783 148.009 31.1783H160.193C162.078 31.1783 163.498 31.6399 164.452 32.563C165.406 33.4862 165.883 34.8089 165.883 36.5312V39.0237C165.911 39.6975 165.802 40.3701 165.561 41.0007C165.32 41.6312 164.953 42.2067 164.482 42.6922C163.551 43.6254 162.1 44.0933 160.128 44.0958H142.117C141.621 44.0958 141.354 43.8644 141.354 43.4092V40.4539C141.354 39.9986 141.602 39.7672 142.117 39.7672H159.178C159.421 39.7926 159.667 39.764 159.897 39.6832C160.128 39.6025 160.337 39.4718 160.51 39.3006C160.786 38.9347 160.922 38.4825 160.892 38.0259V36.7513C160.892 35.5904 160.327 35.0062 159.201 35.0062H147.025C145.14 35.0062 143.721 34.5446 142.77 33.6215C141.818 32.6983 141.341 31.3769 141.339 29.6571V27.3809C141.309 26.7081 141.416 26.0362 141.654 25.4057C141.892 24.7753 142.256 24.1992 142.724 23.7124C143.655 22.7791 145.107 22.3125 147.078 22.3125H164.315Z" fill="#69BDF9"/>
<path d="M10.5226 57.9578C10.5226 59.4753 9.44266 60.162 8.4429 60.162C7.32102 60.162 6.44336 59.3387 6.44336 58.0261C6.44336 56.6452 7.36681 55.8296 8.51158 55.8296C9.65636 55.8296 10.5226 56.6983 10.5226 57.9578ZM7.21799 57.9996C7.21799 58.9101 7.73695 59.5929 8.47724 59.5929C9.21753 59.5929 9.74412 58.9176 9.74412 57.9844C9.74412 57.2788 9.39306 56.3949 8.49632 56.3949C7.59958 56.3949 7.21799 57.2181 7.21799 57.9996V57.9996Z" fill="white"/>
<path d="M15.4979 54.5093C15.2127 54.5977 14.9203 54.6612 14.6241 54.699C14.3341 54.7178 14.0514 54.7971 13.7943 54.9317C13.5372 55.0664 13.3116 55.2534 13.132 55.4805C12.8701 55.8931 12.7142 56.3634 12.678 56.85H12.7008C12.827 56.571 13.0319 56.3343 13.2906 56.1687C13.5493 56.0031 13.8508 55.9156 14.1585 55.9168C15.185 55.9168 15.9367 56.6452 15.9367 57.9654C15.9367 59.2856 15.227 60.1695 14.0059 60.1695C12.5368 60.1695 12.056 58.7621 12.056 57.3812C12.0129 56.5725 12.2396 55.7724 12.7008 55.1049C13.0824 54.5207 13.6777 54.2627 14.4943 54.1262C14.8449 54.0743 15.1916 53.9995 15.5323 53.9023L15.4979 54.5093ZM14.0059 56.4745C13.8099 56.4694 13.6165 56.5199 13.4483 56.62C13.2801 56.7201 13.1439 56.8657 13.0557 57.0397C12.9131 57.3124 12.8422 57.6164 12.8497 57.9237C12.8497 58.6065 13.1931 59.6042 14.0212 59.6042C14.8492 59.6042 15.1659 58.7886 15.1659 58.0185C15.1697 57.347 14.8912 56.4745 14.0059 56.4745V56.4745Z" fill="white"/>
<path d="M21.5304 57.9578C21.5304 59.4753 20.4543 60.162 19.4545 60.162C18.3326 60.162 17.4512 59.3387 17.4512 58.0261C17.4512 56.6452 18.3746 55.8296 19.5232 55.8296C20.6718 55.8296 21.5304 56.6983 21.5304 57.9578ZM18.2296 57.9996C18.2296 58.9101 18.7448 59.5929 19.4889 59.5929C20.233 59.5929 20.7558 58.9176 20.7558 57.9844C20.7558 57.2788 20.4009 56.3949 19.5041 56.3949C18.6074 56.3949 18.2296 57.2181 18.2296 57.9996V57.9996Z" fill="white"/>
<path d="M23.3507 57.2825C23.3507 56.7514 23.3317 56.3227 23.3164 55.9282H23.988L24.03 56.6414C24.1796 56.3853 24.3973 56.1751 24.6591 56.0339C24.921 55.8927 25.2169 55.826 25.5144 55.8409C26.5294 55.8409 27.2888 56.6907 27.2888 57.9426C27.2888 59.4335 26.3653 60.1733 25.3808 60.1733C25.1281 60.1838 24.8769 60.1292 24.6516 60.0149C24.4264 59.9006 24.2346 59.7304 24.0949 59.5208V59.5208V61.7742H23.3317L23.3507 57.2825ZM24.1139 58.3865C24.1109 58.4913 24.1225 58.5959 24.1483 58.6976C24.2116 58.9512 24.359 59.1764 24.5666 59.3367C24.7743 59.497 25.0301 59.5832 25.293 59.5815C26.0944 59.5815 26.5599 58.929 26.5599 57.9768C26.5599 57.1535 26.1211 56.4403 25.3198 56.4403C25.0517 56.445 24.793 56.5393 24.5854 56.7079C24.3777 56.8765 24.2332 57.1096 24.175 57.3698C24.1451 57.467 24.1284 57.5678 24.1254 57.6695L24.1139 58.3865Z" fill="white"/>
<path d="M29.3067 55.917L30.2149 58.3677C30.318 58.6447 30.421 58.9672 30.4897 59.2175H30.5088C30.5851 58.9672 30.669 58.6523 30.7759 58.3526L31.6039 55.917H32.4053L31.2605 58.8761C30.7186 60.2987 30.3485 61.0195 29.8295 61.471C29.5646 61.7064 29.2444 61.8721 28.8984 61.9528L28.7077 61.3268C28.952 61.2427 29.1785 61.1141 29.3754 60.9475C29.6475 60.7167 29.8651 60.4291 30.0127 60.1053C30.0536 60.0504 30.0757 59.9839 30.0757 59.9156C30.0757 59.8473 30.0536 59.7808 30.0127 59.7259L28.4863 55.9019L29.3067 55.917Z" fill="white"/>
<path d="M37.0233 55.917V59.502H37.4545L37.4049 61.3761H36.8096L36.7753 60.0673H33.8866L33.8446 61.3761H33.257L33.2227 59.5172H33.5775C33.7557 59.2554 33.8946 58.9691 33.9897 58.6674C34.1556 58.1317 34.2379 57.5739 34.2339 57.0134V55.917H37.0233ZM34.9017 57.1689C34.9092 57.6941 34.8359 58.2174 34.6842 58.7205C34.6027 58.9845 34.4926 59.2389 34.356 59.4793H36.2639V56.4785H34.8978L34.9017 57.1689Z" fill="white"/>
<path d="M42.9601 57.9578C42.9601 59.4753 41.8802 60.162 40.8804 60.162C39.7585 60.162 38.8809 59.3387 38.8809 58.0261C38.8809 56.6452 39.8005 55.8296 40.9491 55.8296C42.0977 55.8296 42.9601 56.6983 42.9601 57.9578ZM39.6555 57.9996C39.6555 58.9101 40.1745 59.5929 40.9147 59.5929C41.655 59.5929 42.1816 58.9176 42.1816 57.9844C42.1816 57.2788 41.8267 56.3949 40.93 56.3949C40.0333 56.3949 39.6555 57.2181 39.6555 57.9996V57.9996Z" fill="white"/>
<path d="M44.75 55.9656C45.19 55.9044 45.6337 55.874 46.0779 55.8745C46.7877 55.8745 47.9439 55.9921 47.9439 56.9102C47.9348 57.1452 47.8419 57.3692 47.6818 57.5423C47.5217 57.7154 47.3048 57.8262 47.0701 57.8548C47.6844 57.9421 48.1309 58.2759 48.1309 58.8753C48.1309 59.9641 46.7534 60.1007 45.9329 60.1007C45.4674 60.1007 44.9751 60.0665 44.75 60.0514V55.9656ZM45.475 59.5772C45.6925 59.5772 45.8566 59.6037 46.0779 59.6037C46.5969 59.6037 47.3563 59.4899 47.3563 58.8829C47.3563 58.2759 46.7419 58.1545 46.0283 58.1545H45.475V59.5772ZM45.475 57.6803H46.0436C46.6045 57.6803 47.1884 57.5172 47.1884 57.0202C47.1884 56.6067 46.8068 56.4094 46.0665 56.4094C45.8714 56.4106 45.6765 56.422 45.4827 56.4436L45.475 57.6803Z" fill="white"/>
<path d="M52.8819 59.0731C52.8791 59.4054 52.8995 59.7375 52.943 60.067H52.2637L52.2027 59.5435H52.176C52.0284 59.74 51.8358 59.8986 51.6141 60.0062C51.3924 60.1138 51.1481 60.1671 50.9015 60.1619C50.7369 60.174 50.5717 60.152 50.4161 60.0972C50.2606 60.0424 50.1182 59.9561 49.998 59.8438C49.8778 59.7314 49.7825 59.5955 49.7179 59.4445C49.6534 59.2935 49.6211 59.1309 49.6231 58.9669C49.6231 57.9654 50.5199 57.4153 52.134 57.4267V57.3394C52.1506 57.2111 52.1376 57.0807 52.0958 56.9582C52.0541 56.8356 51.9847 56.7242 51.8931 56.6324C51.8014 56.5405 51.6899 56.4707 51.567 56.4282C51.4441 56.3857 51.313 56.3717 51.1838 56.3872C50.7963 56.384 50.416 56.492 50.0887 56.6983L49.917 56.1899C50.335 55.943 50.812 55.812 51.2983 55.8105C52.5728 55.8105 52.8819 56.6793 52.8819 57.4987V59.0731ZM52.1493 57.935C51.3212 57.935 50.3825 58.064 50.3825 58.872C50.3734 58.9673 50.3853 59.0634 50.4173 59.1537C50.4493 59.2439 50.5006 59.3262 50.5678 59.3948C50.635 59.4633 50.7163 59.5165 50.8062 59.5508C50.8961 59.585 50.9924 59.5993 51.0884 59.5928C51.3115 59.6001 51.531 59.5368 51.7155 59.4121C51.9 59.2873 52.0399 59.1075 52.1149 58.8986C52.1382 58.8198 52.1497 58.738 52.1493 58.6558V57.935Z" fill="white"/>
<path d="M55.7222 55.917V57.59H57.6988V55.917H58.462V60.0673H57.6988V58.1704H55.7222V60.0673H54.959V55.917H55.7222Z" fill="white"/>
<path d="M61.2389 55.917V57.6621C61.2389 58.3146 61.2198 58.7319 61.1855 59.3238H61.2122C61.4716 58.8154 61.5938 58.5233 61.8952 58.0453L63.1964 55.9019H64.0856V60.0521H63.3529V58.307C63.3529 57.6318 63.3529 57.279 63.4025 56.6037C63.1278 57.1424 62.9522 57.4762 62.7042 57.8973C62.3226 58.5385 61.8418 59.3389 61.403 60.0673H60.5215V55.917H61.2389Z" fill="white"/>
<path d="M66.5998 58.1286C66.5826 58.3209 66.6078 58.5146 66.6735 58.6963C66.7393 58.8779 66.8442 59.0431 66.9808 59.1804C67.1174 59.3176 67.2824 59.4236 67.4644 59.4909C67.6464 59.5582 67.841 59.5853 68.0346 59.5702C68.4276 59.5827 68.8185 59.5089 69.1794 59.3539L69.3168 59.8926C68.8759 60.0804 68.3997 60.1723 67.9201 60.162C66.638 60.162 65.8672 59.3122 65.8672 58.0603C65.8672 56.8084 66.6113 55.8296 67.8247 55.8296C69.1985 55.8296 69.5495 57.0132 69.5495 57.7758C69.5519 57.8938 69.5443 58.0118 69.5266 58.1286H66.5998ZM68.8245 57.5899C68.8245 57.1156 68.6261 56.3721 67.7751 56.3721C67.012 56.3721 66.6685 57.0663 66.6113 57.5899H68.8245Z" fill="white"/>
<path d="M77.0246 59.938C76.647 60.1024 76.2386 60.1851 75.8264 60.1808C74.5671 60.1808 73.7505 59.331 73.7505 58.0601C73.7362 57.7646 73.7844 57.4694 73.8921 57.1936C73.9998 56.9178 74.1646 56.6675 74.3757 56.459C74.5869 56.2505 74.8397 56.0884 75.1179 55.9833C75.396 55.8781 75.6933 55.8321 75.9905 55.8484C76.354 55.8429 76.7141 55.9194 77.0437 56.0722L76.8719 56.6489C76.5993 56.5106 76.2965 56.4415 75.9905 56.4478C75.0327 56.4478 74.5175 57.161 74.5175 58.0184C74.4993 58.2171 74.5233 58.4173 74.588 58.6061C74.6527 58.795 74.7566 58.9682 74.893 59.1145C75.0293 59.2608 75.1952 59.377 75.3796 59.4555C75.5641 59.5339 75.7631 59.573 75.9637 59.57C76.285 59.5741 76.6031 59.5067 76.8948 59.3727L77.0246 59.938Z" fill="white"/>
<path d="M81.7335 59.0731C81.7306 59.4054 81.751 59.7376 81.7945 60.0671H81.1115L81.0543 59.5435H81.0275C80.8792 59.7401 80.6858 59.8987 80.4635 60.0062C80.2412 60.1138 79.9964 60.1671 79.7492 60.1619C79.585 60.1735 79.4201 60.151 79.2651 60.096C79.11 60.041 78.9681 59.9546 78.8483 59.8423C78.7285 59.73 78.6335 59.5942 78.5692 59.4435C78.5049 59.2929 78.4727 59.1306 78.4747 58.9669C78.4747 57.9654 79.3714 57.4153 80.9818 57.4267V57.3394C80.9983 57.2114 80.9853 57.0814 80.9437 56.9592C80.9022 56.837 80.8332 56.7258 80.742 56.634C80.6508 56.5423 80.5397 56.4724 80.4173 56.4296C80.2949 56.3868 80.1643 56.3723 80.0354 56.3872C79.6479 56.384 79.2676 56.492 78.9402 56.6983L78.7685 56.1899C79.1852 55.943 79.661 55.8119 80.1461 55.8105C81.4244 55.8105 81.7335 56.6793 81.7335 57.4987V59.0731ZM81.0008 57.935C80.1728 57.935 79.2341 58.064 79.2341 58.8721C79.225 58.9673 79.2369 59.0634 79.2689 59.1537C79.3009 59.2439 79.3522 59.3262 79.4194 59.3948C79.4865 59.4633 79.5679 59.5166 79.6578 59.5508C79.7477 59.585 79.844 59.5993 79.94 59.5928C80.1629 59.5996 80.3822 59.536 80.5666 59.4113C80.7509 59.2866 80.8909 59.1072 80.9665 58.8986C80.9897 58.8198 81.0013 58.738 81.0008 58.6558V57.935Z" fill="white"/>
<path d="M83.8713 55.9164H84.8024L85.5656 58.0067C85.6762 58.3178 85.8518 58.8224 85.9472 59.1448C86.0426 58.8261 86.2753 58.1774 86.4471 57.7222L87.111 55.9126H88.0497L88.3436 60.0629H87.6185L87.527 58.0826C87.5079 57.6273 87.4735 57.1038 87.4583 56.5993H87.4316C87.3171 56.9786 87.1988 57.3011 86.966 57.9422L86.1647 60.0363H85.619L84.8787 57.9802C84.7413 57.6008 84.5582 56.9938 84.4552 56.6068H84.4208C84.4208 57.0962 84.3865 57.6425 84.3598 58.0978L84.2491 60.0629H83.5508L83.8713 55.9164Z" fill="white"/>
<path d="M93.968 57.9578C93.968 59.4753 92.8919 60.162 91.8921 60.162C90.7702 60.162 89.8926 59.3387 89.8926 58.0261C89.8926 56.6452 90.8122 55.8296 91.9608 55.8296C93.1094 55.8296 93.968 56.6983 93.968 57.9578ZM90.6672 57.9996C90.6672 58.9101 91.1824 59.5929 91.9265 59.5929C92.6706 59.5929 93.1933 58.9176 93.1933 57.9844C93.1933 57.2788 92.8385 56.3949 91.9417 56.3949C91.045 56.3949 90.6672 57.2181 90.6672 57.9996V57.9996Z" fill="white"/>
<path d="M99.5655 57.9578C99.5655 59.4753 98.4856 60.162 97.4859 60.162C96.3678 60.162 95.4863 59.3387 95.4863 58.0261C95.4863 56.6452 96.4098 55.8296 97.5546 55.8296C98.6993 55.8296 99.5655 56.6983 99.5655 57.9578ZM96.261 57.9996C96.261 58.9101 96.7799 59.5929 97.5202 59.5929C98.2605 59.5929 98.7909 58.9176 98.7909 57.9844C98.7909 57.2788 98.436 56.3949 97.5393 56.3949C96.6425 56.3949 96.261 57.2181 96.261 57.9996V57.9996Z" fill="white"/>
<path d="M104.543 54.5093C104.259 54.5973 103.968 54.6608 103.673 54.699C103.383 54.7168 103.1 54.7957 102.842 54.9304C102.585 55.0651 102.36 55.2526 102.181 55.4805C101.918 55.8928 101.761 56.3631 101.723 56.85H101.75C101.875 56.571 102.079 56.3342 102.337 56.1685C102.595 56.0028 102.896 55.9153 103.204 55.9167C104.23 55.9167 104.982 56.6451 104.982 57.9653C104.982 59.2855 104.276 60.1695 103.051 60.1695C101.586 60.1695 101.101 58.762 101.101 57.3811C101.057 56.5718 101.285 55.7711 101.75 55.1049C102.131 54.5207 102.723 54.2627 103.543 54.1261C103.889 54.0622 104.231 53.976 104.566 53.8682L104.543 54.5093ZM103.039 56.4744C102.844 56.4699 102.65 56.5205 102.482 56.6206C102.314 56.7206 102.178 56.8659 102.089 57.0397C101.947 57.3123 101.876 57.6164 101.883 57.9236C101.883 58.6065 102.227 59.6042 103.055 59.6042C103.883 59.6042 104.2 58.7886 104.2 58.0185C104.215 57.347 103.948 56.4744 103.039 56.4744Z" fill="white"/>
<path d="M109.775 59.938C109.397 60.1024 108.989 60.1851 108.576 60.1808C107.317 60.1808 106.501 59.331 106.501 58.0601C106.486 57.7646 106.534 57.4694 106.642 57.1936C106.75 56.9178 106.915 56.6675 107.126 56.459C107.337 56.2505 107.59 56.0884 107.868 55.9833C108.146 55.8781 108.443 55.8321 108.74 55.8484C109.104 55.8429 109.464 55.9194 109.794 56.0722L109.622 56.6489C109.349 56.5106 109.046 56.4415 108.74 56.4478C107.783 56.4478 107.268 57.161 107.268 58.0184C107.249 58.2171 107.273 58.4173 107.338 58.6061C107.403 58.795 107.507 58.9682 107.643 59.1145C107.779 59.2608 107.945 59.377 108.13 59.4555C108.314 59.5339 108.513 59.573 108.714 59.57C109.035 59.5741 109.353 59.5067 109.645 59.3727L109.775 59.938Z" fill="white"/>
<path d="M114.845 55.917V60.0673H114.082V56.524H112.654V57.5862C112.654 58.7509 112.544 59.5324 111.998 59.8852C111.763 60.0683 111.468 60.1588 111.17 60.1394L111.094 59.5513C111.243 59.5272 111.385 59.4673 111.506 59.3768C111.887 59.0961 111.937 58.5119 111.937 57.5862V55.917H114.845Z" fill="white"/>
<path d="M117.179 55.917L118.088 58.3677C118.191 58.6447 118.294 58.9672 118.362 59.2175C118.443 58.9672 118.526 58.6523 118.633 58.3526L119.458 55.917H120.263L119.118 58.8761C118.576 60.2987 118.206 61.0195 117.687 61.471C117.422 61.7064 117.102 61.8721 116.756 61.9528L116.565 61.3268C116.809 61.2435 117.034 61.1147 117.229 60.9475C117.504 60.718 117.723 60.4302 117.87 60.1053C117.908 60.0493 117.929 59.9832 117.929 59.9156C117.929 59.8479 117.908 59.7818 117.87 59.7259L116.344 55.9019L117.179 55.917Z" fill="white"/>
<path d="M122.267 55.9162L123.656 57.7258H123.805V55.9162H124.53V57.7258H124.675L126.057 55.9162H126.927L125.278 57.813C125.908 57.8813 126.278 58.2493 126.53 58.9094C126.655 59.3088 126.808 59.6992 126.988 60.0778H126.225C126.072 59.7711 125.944 59.4527 125.843 59.1256C125.783 58.8616 125.63 58.6275 125.412 58.4655C125.193 58.3035 124.924 58.2242 124.652 58.2417H124.526V60.0778H123.801V58.2303H123.672C123.076 58.2303 122.722 58.4466 122.462 59.1218C122.353 59.4436 122.226 59.759 122.08 60.0665H121.355C121.536 59.6911 121.691 59.3046 121.821 58.9094C122.08 58.2379 122.443 57.8699 123.073 57.8016L121.428 55.9048L122.267 55.9162Z" fill="white"/>
<path d="M129.227 55.917V57.6621C129.227 58.3146 129.208 58.7319 129.174 59.3238H129.201C129.46 58.8154 129.582 58.5233 129.884 58.0453L131.185 55.9019H132.074V60.0521H131.349V58.307C131.349 57.6318 131.349 57.279 131.399 56.6037C131.124 57.1424 130.948 57.4762 130.7 57.8973C130.319 58.5385 129.838 59.3389 129.399 60.0673H128.518V55.917H129.227Z" fill="white"/>
<path d="M134.143 55.9656C134.583 55.9042 135.026 55.8737 135.471 55.8745C136.176 55.8745 137.333 55.9921 137.333 56.9102C137.324 57.1446 137.231 57.3682 137.072 57.5412C136.913 57.7142 136.697 57.8253 136.463 57.8548V57.8548C137.073 57.9421 137.523 58.2759 137.523 58.8753C137.523 59.9641 136.142 60.1007 135.326 60.1007C134.86 60.1007 134.368 60.0666 134.143 60.0514V55.9656ZM134.868 59.5772C135.081 59.5772 135.249 59.6037 135.471 59.6037C135.989 59.6037 136.745 59.4899 136.745 58.8829C136.745 58.2759 136.134 58.1545 135.417 58.1545H134.868V59.5772ZM134.868 57.6803H135.436C135.997 57.6803 136.581 57.5172 136.581 57.0202C136.581 56.6067 136.199 56.4094 135.459 56.4094C135.263 56.4106 135.067 56.422 134.871 56.4436L134.868 57.6803Z" fill="white"/>
<path d="M142.275 59.0726C142.27 59.405 142.29 59.7372 142.336 60.0665H141.653L141.58 59.5582C141.432 59.7548 141.239 59.9134 141.016 60.0209C140.794 60.1284 140.549 60.1818 140.302 60.1766C140.138 60.1881 139.973 60.1657 139.818 60.1107C139.663 60.0557 139.521 59.9693 139.401 59.857C139.281 59.7447 139.186 59.6089 139.122 59.4582C139.058 59.3075 139.025 59.1452 139.027 58.9815C139.027 57.98 139.924 57.4299 141.534 57.4413V57.3541C141.551 57.2261 141.538 57.0961 141.496 56.9739C141.455 56.8517 141.386 56.7405 141.295 56.6487C141.204 56.5569 141.092 56.487 140.97 56.4442C140.848 56.4015 140.717 56.387 140.588 56.4018C140.201 56.3986 139.82 56.5067 139.493 56.7129L139.321 56.2046C139.738 55.9576 140.214 55.8266 140.699 55.8252C141.977 55.8252 142.286 56.6939 142.286 57.5134L142.275 59.0726ZM141.542 57.9345C140.714 57.9345 139.775 58.0635 139.775 58.8715C139.766 58.9668 139.778 59.0629 139.81 59.1532C139.842 59.2434 139.893 59.3257 139.961 59.3942C140.028 59.4628 140.109 59.516 140.199 59.5502C140.289 59.5844 140.385 59.5988 140.481 59.5923C140.704 59.5985 140.923 59.5347 141.107 59.4101C141.292 59.2855 141.432 59.1063 141.508 58.8981C141.531 58.8192 141.543 58.7374 141.542 58.6553V57.9345Z" fill="white"/>
<path d="M145.093 55.917V57.59H147.066V55.917H147.829V60.0673H147.066V58.1704H145.093V60.0673H144.33V55.917H145.093Z" fill="white"/>
<path d="M150.627 55.917V57.6621C150.627 58.3146 150.627 58.7319 150.578 59.3238H150.605C150.86 58.8154 150.986 58.5233 151.284 58.0453L152.585 55.9019H153.474V60.0521H152.749V58.307C152.749 57.6318 152.768 57.279 152.803 56.6037H152.783C152.509 57.1424 152.337 57.4762 152.085 57.8973C151.704 58.5385 151.223 59.3389 150.784 60.0673H149.906V55.917H150.627Z" fill="white"/>
<path d="M158.648 60.0668H157.884V58.3255H157.339C157.213 58.3163 157.087 58.3327 156.969 58.3738C156.85 58.4149 156.741 58.4798 156.648 58.5645C156.328 58.8149 156.217 59.3232 156.053 59.7216C156.003 59.8399 155.945 59.9552 155.881 60.0668H155.068C155.172 59.9184 155.259 59.7594 155.328 59.5926C155.507 59.1905 155.61 58.6518 155.984 58.3407C156.119 58.2229 156.282 58.1407 156.457 58.1017V58.1017C156.175 58.0993 155.905 57.9908 155.7 57.7979C155.495 57.6049 155.372 57.3421 155.355 57.0622C155.353 56.8763 155.403 56.6937 155.5 56.5348C155.597 56.376 155.737 56.2472 155.904 56.1631C156.341 55.9506 156.826 55.8527 157.312 55.8786C157.759 55.8768 158.205 55.906 158.648 55.9658V60.0668ZM157.884 56.4135C157.676 56.3836 157.466 56.3697 157.255 56.3718C156.747 56.3718 156.11 56.5159 156.11 57.0888C156.11 57.6616 156.774 57.821 157.224 57.821H157.869L157.884 56.4135Z" fill="white"/>
</svg>
